<svg width="41" height="41" viewBox="0 0 41 41" fill="none" xmlns="http://www.w3.org/2000/svg">
<mask id="mask0" mask-type="alpha" maskUnits="userSpaceOnUse" x="5" y="0" width="31" height="41">
<path d="M5.10059 40.6904H35.7358V0.69043H5.10059V40.6904Z" fill="white"/>
</mask>
<g mask="url(#mask0)">
<path d="M26.3688 3.1587C25.7881 1.27123 23.7554 0.254893 21.8679 0.835656C19.9805 1.41642 18.9641 3.44909 19.5449 5.33656L28.7645 33.7213C29.4178 35.4636 31.3053 36.4799 33.1202 35.8992C35.0077 35.3184 36.1692 33.3583 35.5884 31.4709C35.5158 31.4709 26.3688 3.1587 26.3688 3.1587Z" fill="#DFA22F"/>
</g>
<mask id="mask1" mask-type="alpha" maskUnits="userSpaceOnUse" x="5" y="0" width="31" height="41">
<path d="M5.10059 40.6904H35.7358V0.69043H5.10059V40.6904Z" fill="white"/>
</mask>
<g mask="url(#mask1)">
<path d="M12.0681 7.80519C11.4147 5.91771 9.45463 4.90138 7.56715 5.48214C5.67967 6.0629 4.66334 8.09557 5.2441 9.98305L14.4637 38.3678C15.1171 40.1101 17.0045 41.1264 18.8194 40.5457C20.7069 39.9649 21.8684 38.0048 21.2877 36.1174C21.2151 36.1174 12.0681 7.80519 12.0681 7.80519Z" fill="#3CB187"/>
</g>
<path d="M37.984 26.6069C39.8714 26.0261 40.8878 23.9934 40.307 22.106C39.7262 20.2185 37.6936 19.2022 35.8061 19.7829L7.34875 29.0751C5.60647 29.7285 4.59013 31.616 5.17089 33.4308C5.75166 35.3183 7.71173 36.4798 9.59921 35.8991C9.6718 35.8265 37.984 26.6069 37.984 26.6069Z" fill="#CE1E5B"/>
<path d="M13.3019 34.6653C15.1168 34.0845 17.5124 33.286 20.0532 32.4874C19.4725 30.6726 18.6739 28.2769 17.8754 25.7361L11.124 27.9139L13.3019 34.6653Z" fill="#392538"/>
<path d="M27.6027 30.0186C30.1435 29.22 32.5391 28.4215 34.354 27.8407C33.7733 26.0258 32.9747 23.6302 32.1762 21.0894L25.4248 23.2672L27.6027 30.0186Z" fill="#BB242A"/>
<path d="M33.3385 12.3061C35.2259 11.7253 36.2423 9.69267 35.6615 7.80519C35.0807 5.91771 33.0481 4.90138 31.1606 5.48214L2.70325 14.7743C0.960959 15.4277 -0.0553752 17.3152 0.525387 19.1301C1.10615 21.0175 3.06622 22.1791 4.9537 21.5983C5.02629 21.5257 33.3385 12.3061 33.3385 12.3061Z" fill="#72C5CD"/>
<path d="M8.65637 20.3638C10.4713 19.783 12.8669 18.9845 15.4077 18.1859C14.6092 15.6451 13.8106 13.2495 13.2299 11.4346L6.47852 13.6124L8.65637 20.3638Z" fill="#238C73"/>
<path d="M22.9562 15.7175C25.497 14.919 27.8927 14.1205 29.7075 13.5397C28.909 10.9989 28.1104 8.60321 27.5297 6.78833L20.7783 8.96619L22.9562 15.7175Z" fill="#62803A"/>
</svg>
