<svg width="74" height="60" viewBox="0 0 74 60" fill="none" xmlns="http://www.w3.org/2000/svg">
<path d="M70.2858 10.5004H70.7858V10.0004V4.2857C70.7858 3.22185 69.9211 2.35714 68.8573 2.35714H4.2857C3.22188 2.35714 2.35714 3.22182 2.35714 4.28556V10.0004V10.5004H2.85714H70.2858ZM2.85714 12.3574H2.35714V12.8574V55.7142C2.35714 56.778 3.22185 57.6427 4.2857 57.6427H68.8573C69.9211 57.6427 70.7859 56.778 70.7857 55.7142V12.8574V12.3574H70.2857H2.85714ZM4.2857 0.499998H68.8573C70.9443 0.499998 72.643 2.19859 72.643 4.28556V55.7143C72.643 57.8013 70.9443 59.5 68.8573 59.5H4.2857C2.19871 59.5 0.499998 57.8013 0.499998 55.7143V4.2857C0.499998 2.19871 2.19871 0.499998 4.2857 0.499998Z" fill="#616161" stroke="#616161" stroke-width="0.999996"/>
<path d="M67.6448 6.42931C67.6448 6.94217 67.2291 7.35788 66.7163 7.35788C66.2031 7.35788 65.7871 6.94191 65.7871 6.42931C65.7871 5.91625 66.2026 5.50073 66.7153 5.50073H66.7163C67.2291 5.50073 67.6448 5.91645 67.6448 6.42931Z" fill="#616161" stroke="#616161" stroke-width="0.999996"/>
<path d="M62.6507 6.42931C62.6507 6.94217 62.235 7.35788 61.7221 7.35788C61.209 7.35788 60.793 6.94191 60.793 6.42931C60.793 5.91625 61.2085 5.50073 61.7211 5.50073H61.7221C62.235 5.50073 62.6507 5.91645 62.6507 6.42931Z" fill="#616161" stroke="#616161" stroke-width="0.999996"/>
<path d="M57.6409 6.42931C57.6409 6.94217 57.2252 7.35788 56.7123 7.35788C56.1992 7.35788 55.7832 6.94191 55.7832 6.42931C55.7832 5.91625 56.1987 5.50073 56.7113 5.50073H56.7123C57.2252 5.50073 57.6409 5.91645 57.6409 6.42931Z" fill="#616161" stroke="#616161" stroke-width="0.999996"/>
<path d="M61.4627 28.4582L61.1091 28.1047L58.6154 25.611L58.2618 25.2574L58.6154 24.9039L61.2167 22.3027L61.2167 22.3027C62.0995 21.4201 63.5349 21.42 64.4176 22.3026L61.4627 28.4582ZM61.4627 28.4582L61.8162 28.1047M61.4627 28.4582L61.8162 28.1047M61.8162 28.1047L64.4175 25.5034M61.8162 28.1047L64.4175 25.5034M64.4175 25.5034C64.8431 25.0778 65.0767 24.5075 65.0767 23.9031C65.0767 23.299 64.8434 22.7283 64.4177 22.3027L64.4175 25.5034ZM36.5527 48.9927L36.5527 48.9927L38.8098 42.2214C38.8554 42.0846 38.9322 41.9604 39.0342 41.8584L38.6806 41.5049L39.0342 41.8584L59.9033 20.9893C61.5098 19.3832 64.1244 19.3831 65.7307 20.9893C67.337 22.5956 67.337 25.2103 65.7307 26.8166L44.8615 47.6856C44.7595 47.7876 44.6353 47.8644 44.4985 47.91L44.6566 48.3843L44.4985 47.91L37.7273 50.1672C37.7273 50.1673 37.7272 50.1673 37.7272 50.1673C37.0226 50.402 36.318 49.6966 36.5527 48.9927ZM45.6571 43.5566L46.0107 43.9101L46.3642 43.5566L59.7958 30.125L60.1493 29.7714L59.7958 29.4179L57.3021 26.9241L56.9485 26.5706L56.595 26.9241L43.1632 40.3557L42.8097 40.7093L43.1632 41.0629L45.6571 43.5566ZM39.2182 46.8693L38.9019 47.8181L39.8506 47.5018L43.5915 46.2546L43.7035 46.2173L43.7869 46.1339L44.3439 45.5769L44.6975 45.2233L44.3439 44.8697L41.85 42.376L41.4965 42.0225L41.1429 42.376L40.5859 42.933L40.5025 43.0165L40.4652 43.1285L39.2182 46.8693Z" fill="#616161" stroke="#616161" stroke-width="0.999996"/>
<path d="M6.21094 37.857C6.21094 37.3442 6.62665 36.9285 7.13951 36.9285H19.8545C20.3674 36.9285 20.7831 37.3442 20.7831 37.857C20.7831 38.3699 20.3674 38.7856 19.8545 38.7856H7.13951C6.62665 38.7856 6.21094 38.3699 6.21094 37.857Z" fill="#616161" stroke="#616161" stroke-width="0.999996"/>
<path d="M7.13951 42.6428H30.2827C30.7956 42.6428 31.2113 43.0585 31.2113 43.5714C31.2113 44.0843 30.7956 44.5 30.2827 44.5H7.13951C6.62665 44.5 6.21094 44.0843 6.21094 43.5714C6.21094 43.0585 6.62665 42.6428 7.13951 42.6428Z" fill="#616161" stroke="#616161" stroke-width="0.999996"/>
<path d="M7.13951 48.3574H25.9968C26.5097 48.3574 26.9254 48.7731 26.9254 49.286C26.9254 49.7989 26.5097 50.2146 25.9968 50.2146H7.13951C6.62665 50.2146 6.21094 49.7989 6.21094 49.286C6.21094 48.7731 6.62665 48.3574 7.13951 48.3574Z" fill="#616161" stroke="#616161" stroke-width="0.999996"/>
</svg>
