<svg width="51" height="65" viewBox="0 0 51 65" fill="none" xmlns="http://www.w3.org/2000/svg">
<path d="M25.1204 2.40179L25.1198 2.40179C18.8841 2.40891 13.8308 7.46223 13.8237 13.6985V13.6991C13.8237 19.938 18.8814 24.9957 25.1204 24.9957C31.3599 24.9957 36.4176 19.938 36.4176 13.6991C36.4176 7.45951 31.3599 2.40179 25.1204 2.40179ZM38.3194 13.6985C38.3194 20.988 32.4098 26.8975 25.1204 26.8975C17.8348 26.889 11.9302 20.9844 11.9219 13.6988C11.922 6.4094 17.831 0.499999 25.1204 0.499999C32.4099 0.499999 38.3194 6.40903 38.3194 13.6985Z" fill="#616161" stroke="#616161" stroke-width="0.999998"/>
<path d="M0.500001 57.702L0.500001 57.7018C0.494445 43.9044 11.6809 32.7173 25.4789 32.7229L25.4791 32.2229L25.4793 32.7229C39.2772 32.7173 50.4642 43.9044 50.4581 57.7017V57.702V63.5492C50.4581 64.0744 50.0325 64.5001 49.5072 64.5001H1.4509C0.925646 64.5001 0.500001 64.0744 0.500001 63.5492L0.500001 57.702ZM48.0563 62.5983H48.5563V62.0983V57.7033C48.5778 49.4446 44.1837 41.8047 37.0351 37.6691L37.035 37.669C29.8859 33.534 21.0723 33.534 13.9236 37.6691L13.9236 37.6691C6.77518 41.8046 2.38117 49.4442 2.40179 57.7026V62.0983V62.5983H2.90179H48.0563Z" fill="#616161" stroke="#616161" stroke-width="0.999998"/>
</svg>
