<svg width="43" height="65" viewBox="0 0 43 65" fill="none" xmlns="http://www.w3.org/2000/svg">
<path d="M21.1959 0C14.1844 0 8.47852 5.93196 8.47852 13.2218V32.5C8.47852 39.7913 14.1844 45.7218 21.1959 45.7218C28.2074 45.7218 33.9133 39.7913 33.9133 32.5V13.2218C33.9133 5.93196 28.2074 0 21.1959 0ZM21.1959 42.8958C16.1994 42.8958 12.0662 38.9774 11.4063 33.913H30.9841C30.3256 38.9788 26.1924 42.8958 21.1959 42.8958ZM31.0872 31.087H11.3046V13.2218C11.3046 7.48913 15.7416 2.82609 21.1959 2.82609C26.6503 2.82609 31.0872 7.48913 31.0872 13.2218V31.087Z" fill="#616161"/>
<path d="M40.9783 25.4348C40.1983 25.4348 39.5652 26.0679 39.5652 26.8479V32.5C39.5652 42.6287 31.3243 50.8696 21.1957 50.8696C11.067 50.8696 2.82609 42.6287 2.82609 32.5V26.8479C2.82609 26.0679 2.19304 25.4348 1.41304 25.4348C0.633044 25.4348 0 26.0679 0 26.8479V32.5C0 43.7097 8.7538 52.8917 19.7826 53.6236V62.1739H12.7174C11.9374 62.1739 11.3043 62.807 11.3043 63.587C11.3043 64.367 11.9374 65 12.7174 65H29.6739C30.4539 65 31.087 64.367 31.087 63.587C31.087 62.807 30.4539 62.1739 29.6739 62.1739H22.6087V53.6236C33.6375 52.8917 42.3913 43.7097 42.3913 32.5V26.8479C42.3913 26.0679 41.7583 25.4348 40.9783 25.4348Z" fill="#616161"/>
</svg>
