<svg width="64" height="67" viewBox="0 0 64 67" fill="none" xmlns="http://www.w3.org/2000/svg">
<path d="M29.801 57.602H8C4.68629 57.602 2 54.9157 2 51.602V8C2 4.68629 4.68629 2 8 2H51.602C54.9157 2 57.602 4.68629 57.602 8V29.801" stroke="#616161" stroke-width="3"/>
<line x1="2.8125" y1="22.4375" x2="56.4377" y2="22.4375" stroke="#616161" stroke-width="3"/>
<circle cx="12.1942" cy="12.1937" r="1.5" fill="#616161" stroke="#616161" stroke-width="2.5602"/>
<circle cx="19.6063" cy="12.1937" r="1.5" fill="#616161" stroke="#616161" stroke-width="2.5602"/>
<line x1="20.5625" y1="21.5" x2="20.5625" y2="57.2501" stroke="#616161" stroke-width="3"/>
<line x1="38.7148" y1="13.4739" x2="50.542" y2="13.4739" stroke="#616161" stroke-width="3" stroke-linecap="round"/>
<path d="M51.719 55.7688L50.9952 55.8872L50.6441 56.531L46.1349 64.8L42.0458 42.7806L61.193 54.2197L51.719 55.7688Z" fill="#616161" stroke="#616161" stroke-width="3"/>
<mask id="path-8-inside-1" fill="white">
<path fill-rule="evenodd" clip-rule="evenodd" d="M34.7167 30.3876L38.4656 35.7345C39.0904 36.753 37.5908 37.8987 36.8411 36.8803L33.2172 31.5334C32.4675 30.5149 34.0919 29.3691 34.7167 30.3876Z"/>
</mask>
<path fill-rule="evenodd" clip-rule="evenodd" d="M34.7167 30.3876L38.4656 35.7345C39.0904 36.753 37.5908 37.8987 36.8411 36.8803L33.2172 31.5334C32.4675 30.5149 34.0919 29.3691 34.7167 30.3876Z" fill="#616161"/>
<path d="M34.7167 30.3876L32.1596 31.9564L32.2076 32.0346L32.2603 32.1098L34.7167 30.3876ZM38.4656 35.7345L41.0227 34.1657L40.9747 34.0875L40.922 34.0123L38.4656 35.7345ZM36.8411 36.8803L34.3577 38.5634L34.3905 38.6117L34.4251 38.6588L36.8411 36.8803ZM33.2172 31.5334L35.7006 29.8503L35.6678 29.8019L35.6332 29.7548L33.2172 31.5334ZM32.2603 32.1098L36.0092 37.4567L40.922 34.0123L37.1731 28.6654L32.2603 32.1098ZM35.9084 37.3033C35.6185 36.8307 35.5388 36.235 35.6878 35.6923C35.8202 35.2097 36.1013 34.8672 36.3944 34.6522C36.6864 34.438 37.1534 34.2344 37.7508 34.2847C38.428 34.3417 38.9627 34.7019 39.257 35.1017L34.4251 38.6588C35.0943 39.5678 36.0976 40.1667 37.2474 40.2635C38.3172 40.3536 39.2606 39.9909 39.9432 39.4902C41.2547 38.5282 42.3533 36.3346 41.0227 34.1657L35.9084 37.3033ZM39.3244 35.1972L35.7006 29.8503L30.7338 33.2165L34.3577 38.5634L39.3244 35.1972ZM35.6332 29.7548C35.9597 30.1984 36.119 30.8413 35.9637 31.485C35.8297 32.0402 35.5119 32.4059 35.2259 32.6156C34.9459 32.821 34.4764 33.0367 33.8532 32.9824C33.1145 32.9181 32.4903 32.4954 32.1596 31.9564L37.2739 28.8188C36.6308 27.7706 35.5692 27.1092 34.3737 27.0051C33.2936 26.911 32.3476 27.2858 31.6771 27.7776C31.0006 28.2739 30.3782 29.0532 30.131 30.0779C29.8625 31.1911 30.0999 32.3591 30.8013 33.3119L35.6332 29.7548Z" fill="#616161" mask="url(#path-8-inside-1)"/>
<mask id="path-10-inside-2" fill="white">
<path fill-rule="evenodd" clip-rule="evenodd" d="M44.0894 29.1144L42.9648 35.4798C42.7149 36.7529 40.9654 36.3709 41.0904 35.2252L42.215 28.7325C42.4649 27.4595 44.3393 27.8414 44.0894 29.1144Z"/>
</mask>
<path fill-rule="evenodd" clip-rule="evenodd" d="M44.0894 29.1144L42.9648 35.4798C42.7149 36.7529 40.9654 36.3709 41.0904 35.2252L42.215 28.7325C42.4649 27.4595 44.3393 27.8414 44.0894 29.1144Z" fill="#616161"/>
<path d="M44.0894 29.1144L41.1456 28.5365L41.1401 28.5645L41.1352 28.5925L44.0894 29.1144ZM42.9648 35.4798L45.9086 36.0577L45.9141 36.0298L45.919 36.0018L42.9648 35.4798ZM41.0904 35.2252L38.1344 34.7132L38.1183 34.8061L38.108 34.8999L41.0904 35.2252ZM42.215 28.7325L39.2712 28.1546L39.2647 28.1875L39.259 28.2205L42.215 28.7325ZM41.1352 28.5925L40.0105 34.9578L45.919 36.0018L47.0437 29.6364L41.1352 28.5925ZM40.021 34.9019C40.1003 34.4977 40.3739 33.9659 40.9399 33.6062C41.4561 33.2781 41.9965 33.2329 42.406 33.3048C42.8107 33.3759 43.2426 33.5857 43.5821 33.9855C43.959 34.4293 44.1318 35.0083 44.0727 35.5504L38.108 34.8999C37.8397 37.3602 39.6914 38.9198 41.368 39.2143C42.2305 39.3658 43.2472 39.2489 44.1579 38.6702C45.1183 38.0599 45.7043 37.0984 45.9086 36.0577L40.021 34.9019ZM44.0463 35.7372L45.171 29.2446L39.259 28.2205L38.1344 34.7132L44.0463 35.7372ZM45.1588 29.3104C45.0679 29.7737 44.7557 30.3127 44.1842 30.6532C43.6732 30.9577 43.1463 30.9909 42.7407 30.9083C42.3346 30.8255 41.8723 30.591 41.527 30.125C41.1411 29.6045 41.0548 28.9993 41.1456 28.5365L47.0332 29.6924C47.249 28.593 47.0221 27.4628 46.3473 26.5523C45.713 25.6965 44.8133 25.2073 43.9386 25.0291C43.0644 24.851 42.0377 24.9478 41.1128 25.499C40.1273 26.0862 39.4871 27.0548 39.2712 28.1546L45.1588 29.3104Z" fill="#616161" mask="url(#path-10-inside-2)"/>
<mask id="path-12-inside-3" fill="white">
<path fill-rule="evenodd" clip-rule="evenodd" d="M51.5829 34.8428L46.4595 38.662C45.3348 39.2985 44.3351 37.7708 45.3348 37.007L50.5832 33.3151C51.5829 32.5513 52.7075 34.2062 51.5829 34.8428Z"/>
</mask>
<path fill-rule="evenodd" clip-rule="evenodd" d="M51.5829 34.8428L46.4595 38.662C45.3348 39.2985 44.3351 37.7708 45.3348 37.007L50.5832 33.3151C51.5829 32.5513 52.7075 34.2062 51.5829 34.8428Z" fill="#616161"/>
<path d="M51.5829 34.8428L50.1052 32.232L49.9411 32.3248L49.7899 32.4375L51.5829 34.8428ZM46.4595 38.662L47.9372 41.2728L48.1013 41.1799L48.2525 41.0672L46.4595 38.662ZM45.3348 37.007L43.6088 34.5533L43.5604 34.5873L43.5134 34.6232L45.3348 37.007ZM50.5832 33.3151L52.3092 35.7688L52.3576 35.7348L52.4046 35.6989L50.5832 33.3151ZM49.7899 32.4375L44.6665 36.2567L48.2525 41.0672L53.3758 37.248L49.7899 32.4375ZM44.9818 36.0512C45.3557 35.8395 45.8999 35.7299 46.4718 35.8889C46.9939 36.0339 47.369 36.3545 47.5958 36.6942C47.8216 37.0325 47.9743 37.5008 47.9087 38.0397C47.8365 38.6328 47.5225 39.1109 47.1562 39.3908L43.5134 34.6232C41.5698 36.1083 41.5977 38.5155 42.6053 40.0251C43.6275 41.5567 45.8332 42.4636 47.9372 41.2728L44.9818 36.0512ZM47.0609 39.4607L52.3092 35.7688L48.8571 30.8614L43.6088 34.5533L47.0609 39.4607ZM52.4046 35.6989C51.9572 36.0407 51.2797 36.2262 50.5848 36.0507C49.9866 35.8997 49.5993 35.5412 49.3844 35.2193C49.1693 34.897 48.9785 34.3872 49.0791 33.7559C49.1956 33.0251 49.6478 32.4908 50.1052 32.232L53.0606 37.4536C54.0802 36.8765 54.8136 35.8966 55.0043 34.7004C55.1791 33.6035 54.8555 32.6085 54.3749 31.8883C53.8944 31.1685 53.1088 30.4998 52.0538 30.2333C50.9019 29.9425 49.709 30.2076 48.7618 30.9313L52.4046 35.6989Z" fill="#616161" mask="url(#path-12-inside-3)"/>
<mask id="path-14-inside-4" fill="white">
<path fill-rule="evenodd" clip-rule="evenodd" d="M29.0927 38.1537L35.3407 39.2994C36.5903 39.4268 36.2154 41.3364 35.0908 41.0817L28.7178 40.0633C27.4682 39.8087 27.8431 37.8991 29.0927 38.1537Z"/>
</mask>
<path fill-rule="evenodd" clip-rule="evenodd" d="M29.0927 38.1537L35.3407 39.2994C36.5903 39.4268 36.2154 41.3364 35.0908 41.0817L28.7178 40.0633C27.4682 39.8087 27.8431 37.8991 29.0927 38.1537Z" fill="#616161"/>
<path d="M29.0927 38.1537L28.4937 41.0933L28.5226 41.0992L28.5516 41.1045L29.0927 38.1537ZM35.3407 39.2994L34.7996 42.2502L34.9175 42.2719L35.0367 42.284L35.3407 39.2994ZM35.0908 41.0817L35.7532 38.1558L35.6593 38.1345L35.5642 38.1193L35.0908 41.0817ZM28.7178 40.0633L28.1188 43.0029L28.1814 43.0156L28.2444 43.0257L28.7178 40.0633ZM28.5516 41.1045L34.7996 42.2502L35.8818 36.3486L29.6338 35.2029L28.5516 41.1045ZM35.0367 42.284C34.502 42.2295 33.8618 41.9146 33.4573 41.2801C33.1102 40.7357 33.0869 40.1954 33.1482 39.8332C33.2091 39.4729 33.3996 39.0082 33.8564 38.6265C34.3933 38.1778 35.1134 38.011 35.7532 38.1558L34.4284 44.0077C35.6305 44.2798 36.8192 43.9698 37.7037 43.2306C38.508 42.5586 38.9249 41.6563 39.064 40.8344C39.2034 40.0107 39.1098 38.9851 38.5167 38.0547C37.8662 37.0344 36.8042 36.433 35.6448 36.3149L35.0367 42.284ZM35.5642 38.1193L29.1912 37.1009L28.2444 43.0257L34.6174 44.0442L35.5642 38.1193ZM29.3168 37.1237C29.8194 37.2261 30.3526 37.5662 30.6752 38.128C30.9595 38.6232 30.9855 39.1201 30.9119 39.4954C30.8383 39.8701 30.6245 40.3297 30.1604 40.6867C29.633 41.0924 28.9972 41.1959 28.4937 41.0933L29.6917 35.2141C28.5634 34.9842 27.4121 35.2309 26.502 35.931C25.6553 36.5824 25.1915 37.4875 25.0242 38.3396C24.8568 39.1923 24.9453 40.1985 25.4718 41.1154C26.0364 42.0989 26.9914 42.7732 28.1188 43.0029L29.3168 37.1237Z" fill="#616161" mask="url(#path-14-inside-4)"/>
<mask id="path-16-inside-5" fill="white">
<path fill-rule="evenodd" clip-rule="evenodd" d="M30.3427 47.7004L35.591 43.8812C36.5907 43.2447 37.7154 44.7724 36.7157 45.5362L31.4673 49.2281C30.4676 49.9919 29.343 48.337 30.3427 47.7004Z"/>
</mask>
<path fill-rule="evenodd" clip-rule="evenodd" d="M30.3427 47.7004L35.591 43.8812C36.5907 43.2447 37.7154 44.7724 36.7157 45.5362L31.4673 49.2281C30.4676 49.9919 29.343 48.337 30.3427 47.7004Z" fill="#616161"/>
<path d="M30.3427 47.7004L31.954 50.231L32.0326 50.1809L32.1079 50.1261L30.3427 47.7004ZM35.591 43.8812L33.9797 41.3507L33.9012 41.4007L33.8258 41.4555L35.591 43.8812ZM36.7157 45.5362L38.4417 47.9899L38.4901 47.9559L38.5371 47.92L36.7157 45.5362ZM31.4673 49.2281L29.7413 46.7744L29.6929 46.8084L29.6459 46.8443L31.4673 49.2281ZM32.1079 50.1261L37.3562 46.3069L33.8258 41.4555L28.5775 45.2747L32.1079 50.1261ZM37.2023 46.4118C36.715 46.7221 36.085 46.8137 35.507 46.649C34.9984 46.5041 34.6564 46.2026 34.4532 45.915C34.249 45.626 34.0667 45.1823 34.1121 44.6233C34.1635 43.9893 34.4912 43.4604 34.8943 43.1524L38.5371 47.92C39.4399 47.2301 40.002 46.2238 40.0924 45.1084C40.1768 44.068 39.8384 43.1389 39.353 42.4521C38.4249 41.1389 36.2004 39.9367 33.9797 41.3507L37.2023 46.4118ZM34.9896 43.0825L29.7413 46.7744L33.1934 51.6818L38.4417 47.9899L34.9896 43.0825ZM29.6459 46.8443C30.0967 46.4999 30.7725 46.3194 31.4579 46.491C32.0422 46.6373 32.4078 46.9788 32.6052 47.258C32.8011 47.5352 32.9946 47.9814 32.9456 48.5659C32.8876 49.2567 32.5025 49.8817 31.954 50.231L28.7314 45.1699C27.6831 45.8374 27.0636 46.908 26.9666 48.0643C26.8785 49.1143 27.2282 50.0458 27.7053 50.7208C28.1838 51.3979 28.9555 52.0497 30.0006 52.3113C31.1469 52.5983 32.3381 52.3382 33.2887 51.6119L29.6459 46.8443Z" fill="#616161" mask="url(#path-16-inside-5)"/>
</svg>
